REM MD5 e187a691f4565f9382c797a33abc7cd2
FILE "radicalgames@psygnosis (Europe).bin" BINARY
  TRACK 01 MODE2/2352
    INDEX 01 00:00:00
  TRACK 02 AUDIO
    INDEX 00 09:10:68
    INDEX 01 09:12:68
  TRACK 03 AUDIO
    INDEX 00 11:52:67
    INDEX 01 11:54:67
  TRACK 04 AUDIO
    INDEX 00 12:09:68
    INDEX 01 12:11:68
  TRACK 05 AUDIO
    INDEX 00 12:15:68
    INDEX 01 12:17:68
  TRACK 06 AUDIO
    INDEX 00 16:49:04
    INDEX 01 16:51:04
REM LEADOUT 21:22:15
